<?xml version="1.0" encoding="utf-8"?>
<!-- Generator: Adobe Illustrator 16.0.0, SVG Export Plug-In . SVG Version: 6.00 Build 0)  -->
<!DOCTYPE svg PUBLIC "-//W3C//DTD SVG 1.1//EN" "http://www.w3.org/Graphics/SVG/1.1/DTD/svg11.dtd">
<svg version="1.1" id="Calque_1" xmlns="http://www.w3.org/2000/svg" xmlns:xlink="http://www.w3.org/1999/xlink" x="0px" y="0px"
	 width="322px" height="178px" viewBox="0 0 322 178" enable-background="new 0 0 322 178" xml:space="preserve">
<g>
	<g>
		<path id="path11_1_" fill="#95C11F" d="M219.189,94.825c0-0.283,0.031-0.576,0.094-0.877c0.348-1.687,1.669-3.449,3.349-4.479
			c5.344-3.282,9.792-2.315,10.442-1.953c0.075,0.04,0.027,0.088-0.019,0.211c-0.612,1.552-6.178,6.427-13.307,9.029
			C219.429,96.229,219.189,95.478,219.189,94.825 M237.704,85.873c-0.67-0.746-2.455-1.569-4.859-1.949
			c-2.339-0.37-7.178-0.631-12.44,2.075c-5.491,2.817-9.03,8.058-7.439,13.012c0.011-0.008-4.629,1.718-8.1,1.008
			c-1.876-0.382-3.641-1.77-4.198-3.604c-0.867-2.835-0.149-7.71,4.721-12.154c6.434-5.882,16.093-7.98,20.219-8.878
			c1.894-0.411,2.14-0.475,2.206-0.747c0.028-0.121,0.097-0.555-0.291-1.002c-0.576-0.685-2.237-1.391-6.827-0.901
			c-4.718,0.508-11.187,2.414-13.105,3.01c1.323-2.783,5.41-10.149,6.144-11.546c1.186-2.253,1.613-3.234,1.613-3.762
			c0-0.153-0.04-0.265-0.128-0.339c-0.671-0.618-4.528,1.46-7.477,4.936c-2.959,3.478-4.53,6.273-6.85,9.948
			c-2.575,4.092-10.664,6.163-14.579,7.238c-1.037,0.277-1.352,0.329-1.483,0.468c-0.13,0.145-0.176,0.339-0.109,0.542
			c0.329,1.142,2.315,2.389,4.361,2.484c1.494,0.064,3.264-0.166,6.015-0.933c-1.472,2.346-3.971,7.506-3.971,12.449
			c0,3.836,1.768,8.393,9.259,9.104c5.901,0.56,11.614-1.539,15.63-3.071c4.539,3.511,10.702,3.331,10.715,3.331
			c15.831,0,23.181-12.687,24.53-15.04c0,0.023,1.45,4.725,4.217,8.528c3.782,5.222,9.022,6.861,14.399,6.374
			c6.4-0.598,10.502-5.546,10.887-6.47c0.191-0.445-0.012-0.941-1.179-0.317c-0.997,0.539-2.06,1.342-4.719,1.839
			c-11.85,2.237-15.39-10.076-17.932-15.341c-0.354-0.756-0.665-1.298-0.985-1.434c-0.726-0.278-6.31,0.695-6.919,1.888
			c-6.232,11.572-14.306,14.14-20.448,14.227c-2.056,0.036-3.773-0.385-5.159-1.101c2.399-1.19,4.095-2.105,5.83-3.258
			c6.36-4.234,8.678-8.766,8.678-10.23C237.908,86.083,237.813,85.984,237.704,85.873z"/>
	</g>
	<g>
		<path fill="#95C11F" d="M64.6,79.222c0,0.8-0.535,1.305-1.6,1.508c-1.394,0.27-2.249,0.58-2.578,0.936
			c-3.315,3.492-4.972,8.006-4.972,13.547c0,2.604,0.413,5.063,1.242,7.368c0.684,1.899,1.169,3.141,1.467,3.736
			c0.737,1.447,1.643,2.484,2.71,3.104c0.444,0.211,0.888,0.401,1.333,0.577c0.472,0.269,0.71,0.642,0.71,1.112
			c0,0.475-0.155,0.902-0.468,1.287c-0.311,0.388-0.643,0.537-0.999,0.449c-0.385-0.062-0.976-0.256-1.776-0.581
			c-1.422-0.83-2.96-2.592-4.619-5.285c-0.416-0.681-0.836-1.383-1.266-2.107c-0.428-0.726-0.749-1.417-0.955-2.066
			c-0.15-0.476-0.402-2.385-0.756-5.729c-0.118-1.038-0.177-2.042-0.177-3.021c0-5.237,1.526-9.695,4.574-13.366
			c1.776-2.133,3.627-3.2,5.553-3.2c0.828,0,1.582,0.251,2.265,0.753C64.496,78.392,64.6,78.72,64.6,79.222z"/>
		<path fill="#95C11F" d="M79.031,96.413c-1.747,3.933-4.22,6.277-7.415,7.017c-0.386,0.087-0.77,0.133-1.155,0.133
			c-1.689,0-3.39-0.918-5.107-2.753c-1.153-1.245-1.734-2.859-1.734-4.845c0-2.191,0.654-4.543,1.957-7.059
			c0.562-1.066,1.245-1.986,2.041-2.756c0.92-0.917,1.791-1.375,2.623-1.375c0.473,0,0.917,0.179,1.333,0.532
			c0.414,0.355,1.524,0.831,3.329,1.423c1.422,0.475,2.429,1.271,3.021,2.396c1.035,1.984,1.556,3.686,1.556,5.111
			C79.478,95.035,79.329,95.761,79.031,96.413z M75.479,93.66c-0.206-2.163-0.784-3.452-1.731-3.866
			c-0.148-0.06-0.282-0.091-0.401-0.091c-0.354,0-0.797,0.294-1.33,0.893c-0.595,0.677-1.053,1.076-1.378,1.195
			c-0.208,0.087-0.503,0-0.889-0.268c-0.384-0.264-0.636-0.4-0.755-0.4c-0.085,0-0.16,0.031-0.222,0.092
			c-1.035,0.886-1.553,2.262-1.553,4.13c0,1.271,0.294,2.355,0.888,3.244c0.829,1.212,1.526,1.818,2.088,1.818
			c1.305,0,2.562-0.813,3.777-2.442C75.125,96.425,75.627,94.988,75.479,93.66z"/>
		<path fill="#95C11F" d="M102.881,106.759c0.117,0.593-0.311,0.918-1.286,0.978c-0.654,0.028-1.321-0.253-2-0.846
			c-0.563-0.503-1.007-1.313-1.332-2.44c-0.295-1.037-0.472-2.502-0.534-4.396c-0.055-2.129-0.163-3.599-0.311-4.396
			c-0.384,1.332-1.019,3.314-1.91,5.948c-0.532,1.451-0.858,2.278-0.977,2.49c-0.475,0.916-1.064,1.33-1.776,1.242
			c-1.422-0.326-2.517-1.122-3.286-2.397c-0.504-0.829-0.976-2.149-1.42-3.952c-0.475-1.982-0.875-3.315-1.2-4
			c-1.274,6.189-2.636,10.807-4.085,13.858c-0.21,0.447-0.829,0.414-1.867-0.09c-0.858-0.413-1.287-1.006-1.287-1.776
			c0-0.268,0.312-1.213,0.93-2.84c0.269-0.711,1.304-4.133,3.113-10.265c0.62-2.129,1.271-5.875,1.952-11.234
			c0.06-0.061,0.205-0.366,0.445-0.936c0.149-0.41,0.415-0.617,0.8-0.617c1.006,0,1.703,0.19,2.088,0.577
			c0,0.858,0.141,2.245,0.419,4.152c0.284,1.909,0.423,3.353,0.423,4.329c0.265,1.657,0.518,3.329,0.753,5.018
			c0.328,1.897,0.919,3.449,1.778,4.667c2.842-7.908,4.649-14.152,5.417-18.743c0.118-0.475,0.563-0.712,1.333-0.712
			c1.096,0,1.718,0.354,1.867,1.065c0.205,1.064,0.309,2.298,0.309,3.688c0,0.444-0.027,1.407-0.089,2.889
			c-0.028,1.241-0.028,2.25,0,3.016C101.416,97.287,101.993,102.527,102.881,106.759z"/>
		<path fill="#95C11F" d="M117.714,90.636c-1.124,2.432-2.087,4.04-2.888,4.844c-1.24,1.241-1.925,1.923-2.04,2.041
			c-0.857,0.682-1.719,1.094-2.576,1.243c-0.121,0.591-0.176,1.29-0.176,2.088c0,0.563,0.042,1.415,0.13,2.555
			c0.09,1.138,0.135,1.975,0.135,2.511c0,2.014-0.475,3.518-1.421,4.529l-1.244-0.668c-0.503-0.268-0.784-0.594-0.845-0.977
			c-0.296-1.923-0.443-4.07-0.443-6.438c0-1.573,0.089-3.908,0.266-7.02c0.177-3.109,0.268-5.462,0.268-7.063
			c0-2.308-0.132-4.425-0.4-6.352c-0.237,0.088-0.46-0.057-0.667-0.44c-0.207-0.387-0.384-0.611-0.533-0.669
			c0.148-0.945,0.4-1.42,0.754-1.42c0.445-0.148,1.362-0.118,2.753,0.089c3.85,0.624,6.751,2.308,8.705,5.063
			c0.623,0.889,0.932,1.892,0.932,3.018C118.424,88.547,118.188,89.571,117.714,90.636z M114.826,87.218
			c0.15-1.186-0.352-2.114-1.506-2.799c-0.061,0-1.125-0.426-3.2-1.288c0.325,5.45,0.43,9.268,0.312,11.458
			C113.065,92.101,114.532,89.645,114.826,87.218z"/>
		<path fill="#95C11F" d="M135.656,96.413c-1.747,3.933-4.217,6.277-7.417,7.017c-0.384,0.087-0.767,0.133-1.155,0.133
			c-1.687,0-3.388-0.918-5.105-2.753c-1.156-1.245-1.732-2.859-1.732-4.845c0-2.191,0.651-4.543,1.954-7.059
			c0.562-1.066,1.243-1.986,2.043-2.756c0.919-0.917,1.792-1.375,2.622-1.375c0.469,0,0.916,0.179,1.33,0.532
			c0.414,0.355,1.526,0.831,3.333,1.423c1.419,0.475,2.427,1.271,3.021,2.396c1.037,1.984,1.552,3.686,1.552,5.111
			C136.1,95.035,135.953,95.761,135.656,96.413z M132.104,93.66c-0.209-2.163-0.785-3.452-1.732-3.866
			c-0.147-0.06-0.284-0.091-0.399-0.091c-0.356,0-0.8,0.294-1.333,0.893c-0.592,0.677-1.05,1.076-1.376,1.195
			c-0.207,0.087-0.503,0-0.888-0.268c-0.386-0.264-0.636-0.4-0.756-0.4c-0.087,0-0.162,0.031-0.222,0.092
			c-1.035,0.886-1.552,2.262-1.552,4.13c0,1.271,0.295,2.355,0.886,3.244c0.832,1.212,1.524,1.818,2.089,1.818
			c1.302,0,2.56-0.813,3.773-2.442C131.749,96.425,132.253,94.988,132.104,93.66z"/>
		<path fill="#95C11F" d="M147.116,79.137c0,0.59-0.428,1.105-1.29,1.552c-0.235,0.115-0.487,0.132-0.754,0.041
			c-0.413-0.116-0.635-0.176-0.666-0.176c-0.176,0-0.354,0.087-0.533,0.267c-1.598,1.598-2.398,3.557-2.398,5.861
			c0,0.862,0.132,1.662,0.401,2.401c0.117,0.325,1.241,2.617,3.374,6.881c1.422,2.844,2.132,5.261,2.132,7.24
			c0,1.628-0.4,3.202-1.201,4.708c-0.266,0.501-0.932,1.155-1.997,1.957c-0.86,0.619-1.629,0.928-2.308,0.928
			c-0.269,0-0.519-0.04-0.756-0.128c-0.888-0.387-1.333-0.876-1.333-1.468c0-0.355,0.22-0.788,0.667-1.289
			c0.12-0.148,0.401-0.236,0.846-0.267c0.442-0.028,0.738-0.208,0.886-0.533c0.623-1.305,0.932-2.633,0.932-3.995
			c0-1.926-0.952-4.716-2.865-8.373c-1.907-3.655-2.862-6.582-2.862-8.771c0-1.806,0.354-3.419,1.063-4.843
			c0.802-1.628,1.942-2.797,3.423-3.506c0.679-0.325,1.346-0.488,1.997-0.488c1.244,0,2.177,0.339,2.798,1.021
			C146.967,78.482,147.116,78.812,147.116,79.137z"/>
		<path fill="#95C11F" d="M172.296,78.333c-0.266,1.068-0.771,1.688-1.508,1.868c-1.923,0.471-5.273,1.095-10.038,1.865
			c-0.593,7.369-0.888,13.515-0.888,18.431c0,1.867,0.03,3.7,0.089,5.508c0.029,0.563,0,0.99-0.089,1.288
			c-0.148,0.472-0.445,0.691-0.89,0.666c-0.86-0.028-1.571-0.395-2.132-1.084c-0.564-0.7-0.873-1.478-0.932-2.337
			c-0.059-1.097-0.089-2.247-0.089-3.461c0-1.957,0.132-5.052,0.398-9.286c0.268-4.055,0.385-7.15,0.357-9.284
			c-0.799-0.054-1.91,0.017-3.333,0.223c-1.629,0.238-2.752,0.356-3.373,0.356c-1.452,0-2.637-0.39-3.554-1.163
			c-0.355-0.78-0.533-1.18-0.533-1.209c0-0.207,0.104-0.435,0.308-0.672c0.95-0.329,2.887-0.626,5.819-0.898
			c2.576-0.265,4.502-0.743,5.775-1.431c1.035,0.352,2.22,0.529,3.552,0.529c1.333,0,2.604-0.156,3.823-0.486
			c0.354-0.03,1.256-0.237,2.705-0.62c1.066-0.271,1.955-0.359,2.665-0.271c0.537,0,0.752,0.224,0.67,0.671
			C171.896,77.538,172.296,77.802,172.296,78.333z"/>
		<path fill="#95C11F" d="M178.71,77.226c0.144,0.562,0.22,1.125,0.22,1.688c0,1.037-0.31,2.352-0.934,3.953
			c-0.886,2.278-1.39,3.653-1.508,4.128c-0.71,2.604-1.719,3.909-3.019,3.909c-0.238,0-0.475-0.045-0.714-0.132
			c-0.624-0.207-0.84-0.726-0.664-1.556c0.178-0.83,0.787-2.783,1.819-5.861c0.771-2.4,1.231-4.44,1.38-6.128
			c0.054-0.651,0.649-0.919,1.777-0.801c0.502,0.062,0.84,0.119,1.02,0.177C178.414,76.724,178.62,76.927,178.71,77.226z"/>
	</g>
	<g>
		<path fill="#95C11F" d="M255.461,43.767c0,2.323-1.885,4.205-4.202,4.205c-2.32,0-4.204-1.882-4.204-4.205
			c0-2.321,1.884-4.203,4.204-4.203C253.576,39.564,255.461,41.446,255.461,43.767z"/>
	</g>
	<g>
		<path fill="#95C11F" d="M50.146,159.646L50.146,159.646c-3.926,0-6.658-1.104-8.588-3.461c-1.708-2.091-2.732-5.067-3.422-9.956
			L27.385,69.992c-1.027-7.269,0.884-12.651,5.677-16.004c3.808-2.667,8.589-3.338,11.444-3.738l0.164-0.027
			c0.532-0.094,5.32-0.942,8.484-1.389c0.637-0.089,1.208-0.136,1.748-0.136c2.632,0,4.017,1.084,5.239,2.04
			c0.168,0.136,0.344,0.271,0.527,0.408c0.4,0.301,0.882,0.437,1.558,0.437c0.555,0,1.167-0.092,1.759-0.179
			c0.131-0.021,0.263-0.038,0.393-0.055l8.47-1.197c0.841-0.118,1.526-0.172,2.074-0.221c0.375-0.029,0.827-0.067,1.041-0.111
			c0.013-0.023,0.036-0.054,0.058-0.092c1.287-2.176,3.243-4.576,10.194-5.559l86.651-12.224
			c46.976-6.624,96.136-13.559,99.422-14.021c1.439-0.203,2.68-0.301,3.811-0.301c5.798,0,9.131,2.814,9.919,8.366
			c0.271,1.898,0.638,4.282,1.018,6.81c0.859,5.597,1.741,11.39,1.933,14.115c0.229,3.351-1.603,4.553-2.482,5.133
			c-0.034,0.023-0.08,0.054-0.122,0.081v0.007c0.103,0.735,0.306,2.372,0.556,4.44c0.592,4.865,2.155,17.783,2.753,19.403
			c0.101,0.271,0.258,0.421,0.841,0.888c1.215,0.976,3.031,2.447,3.641,6.772l4.312,30.604c0.406,2.899,0.529,5.897-1.377,8.243
			c-1.668,2.056-4.509,3.232-9.491,3.935c-7.287,1.029-157.459,22.21-212.994,30.041l-20.081,2.837
			C52.857,159.53,51.426,159.646,50.146,159.646z M54.901,53.219c-0.324,0-0.698,0.027-1.115,0.089
			c-3.201,0.45-8.311,1.365-8.363,1.375l-0.288,0.041c-2.611,0.366-6.562,0.923-9.483,2.966c-3.331,2.332-4.573,6.15-3.792,11.674
			l10.751,76.229c1.155,8.208,3.168,9.53,7.534,9.53l0,0c1.068,0,2.293-0.099,3.746-0.305l20.079-2.833
			c55.534-7.831,205.706-29.012,212.987-30.041c3.608-0.511,5.776-1.262,6.625-2.309c0.656-0.811,0.772-2.188,0.406-4.761
			l-4.312-30.603c-0.366-2.567-1.092-3.149-2.008-3.889c-0.752-0.609-1.688-1.365-2.23-2.819c-0.65-1.733-1.593-8.808-3.01-20.445
			c-0.243-2.043-0.447-3.664-0.541-4.356c-0.402-2.84,1.301-3.958,2.114-4.494c0.142-0.095,0.358-0.238,0.406-0.298l0,0
			c0,0,0.088-0.19,0.048-0.747c-0.176-2.542-1.085-8.495-1.884-13.749c-0.394-2.535-0.761-4.932-1.031-6.861
			c-0.468-3.302-1.891-4.474-5.444-4.474c-0.914,0-1.951,0.088-3.18,0.257c-3.294,0.464-52.445,7.397-99.423,14.021L86.846,48.643
			c-5.384,0.763-6.282,2.278-6.936,3.383c-1.263,2.135-2.969,2.273-4.615,2.41c-0.519,0.043-1.102,0.092-1.817,0.194l-8.472,1.193
			c-0.116,0.017-0.241,0.034-0.361,0.054c-0.723,0.109-1.535,0.223-2.419,0.223c-1.675,0-3.076-0.437-4.275-1.342
			c-0.209-0.156-0.405-0.312-0.594-0.46C56.352,53.514,55.977,53.219,54.901,53.219z"/>
	</g>
</g>
</svg>
